<svg width="64" height="64" viewBox="0 0 64 64" fill="none" xmlns="http://www.w3.org/2000/svg">
<path d="M15 10H50V54H15V10Z" stroke="#494949" stroke-width="4"/>
<path d="M33.2542 41V39.7661C36.3077 39.5017 38 37.9153 38 35.3301C38 33.1267 36.7676 31.7656 34.3487 31.2661L33.2542 31.0507V28.0052C34.0452 28.1423 34.6246 28.818 34.6522 29.5916H37.7425C37.7149 27.2609 35.9858 25.6158 33.2542 25.3416V24H31.9298V25.3318C28.959 25.5668 27.2483 27.1532 27.2483 29.6895C27.2483 31.8341 28.4808 33.2442 30.8353 33.7926L31.9298 34.0472V37.2005C30.9457 37.0927 30.2375 36.4171 30.1915 35.5553H27C27.0092 38.0622 28.8211 39.6192 31.9298 39.7857V41H33.2542ZM34.8545 35.7316C34.8545 36.5639 34.2567 37.1221 33.2542 37.2005V34.2823C34.3303 34.4977 34.8545 34.9775 34.8545 35.7316ZM30.4766 29.3566C30.4766 28.6025 31.0744 28.0444 31.9298 27.9856V30.7667C30.9824 30.5611 30.4766 30.0714 30.4766 29.3566Z" fill="#FD665E"/>
</svg>
