<svg width="121" height="64" viewBox="0 0 121 64" fill="none" xmlns="http://www.w3.org/2000/svg">
<path d="M16.6173 19.7658C17.6423 20.2324 18.6098 21.2068 19.1298 22.7264C20.5299 26.8176 25.0041 29.6055 28.8814 27.4869C30.4175 26.6475 33.0678 27.5549 34.0666 30.4738C35.4667 34.5651 39.9409 37.353 43.8182 35.2343C44.2141 35.018 44.6841 34.9177 45.1807 34.938V37.8486C43.6892 37.3765 42.0646 37.4478 40.5332 38.2847C38.9971 39.124 36.3468 38.2166 35.3479 35.2978C33.9479 31.2065 29.4737 28.4186 25.5964 30.5372C24.0603 31.3766 21.41 30.4692 20.4112 27.5503C19.7313 25.5637 18.3266 23.8843 16.6173 22.9249V19.7658Z" fill="black"/>
<path d="M19.3465 17.7183C20.6056 18.7032 21.6156 20.0976 22.1603 21.6893C23.1591 24.6082 25.8094 25.5156 27.3455 24.6762C31.2228 22.5576 35.697 25.3455 37.0971 29.4368C38.0959 32.3556 40.7462 33.263 42.2823 32.4236C43.2306 31.9054 44.2147 31.6808 45.1807 31.6969V17.7183H19.3465Z" fill="black"/>
<path d="M16.6173 27.0918V30.1773C17.4901 31.0722 18.1856 32.1811 18.6051 33.407C19.604 36.3258 22.2542 37.2333 23.7904 36.3939C27.6676 34.2752 32.1418 37.0631 33.5419 41.1544C34.5408 44.0733 37.191 44.9807 38.7272 44.1413C40.9071 42.9501 43.2758 43.31 45.1807 44.5805V41.3555C44.1153 40.7016 42.9209 40.6299 42.0691 41.0954C38.1918 43.214 33.7176 40.4261 32.3175 36.3348C31.3187 33.416 28.6684 32.5085 27.1323 33.3479C23.255 35.4666 18.7808 32.6787 17.3807 28.5874C17.1835 28.0111 16.922 27.5133 16.6173 27.0918Z" fill="black"/>
<path d="M33.4814 46.2816C32.1498 45.2916 31.0785 43.8484 30.5115 42.1915C29.5126 39.2726 26.8624 38.3652 25.3262 39.2046C22.1518 40.9391 18.5773 39.3848 16.6173 36.5191V46.2816H33.4814Z" fill="black"/>
<path fill-rule="evenodd" clip-rule="evenodd" d="M57.3881 23.8037C58.8485 23.8037 60.1244 24.0177 61.2157 24.4454C62.3073 24.8731 63.2144 25.4631 63.9373 26.2153C64.6598 26.9529 65.1984 27.801 65.5522 28.7597C65.921 29.7038 66.1055 30.6846 66.1055 31.7024V32.1891C66.1055 33.1626 65.921 34.1213 65.5522 35.0655C65.1984 36.0095 64.6598 36.865 63.9373 37.6319C63.2144 38.3989 62.3073 39.0111 61.2157 39.4683C60.1244 39.9256 58.8485 40.1542 57.3881 40.1542H51.5471V23.8037H57.3881ZM57.5874 37.2337H54.6888V26.7242H57.5874C58.4281 26.7242 59.1729 26.8423 59.8219 27.0783C60.4857 27.3143 61.0462 27.6609 61.5035 28.1182C61.9608 28.5754 62.3073 29.1285 62.5432 29.7775C62.794 30.4118 62.9195 31.1345 62.9195 31.9457C62.9195 32.7276 62.794 33.4429 62.5432 34.0919C62.3073 34.7261 61.9608 35.2793 61.5035 35.7513C61.0462 36.2233 60.4857 36.592 59.8219 36.8576C59.1729 37.1083 58.4281 37.2337 57.5874 37.2337Z" fill="black"/>
<path d="M68.432 39.0701C69.199 39.9845 70.2759 40.4418 71.6622 40.4418H71.7951C72.7244 40.4418 73.4989 40.2354 74.1182 39.8224C74.7378 39.4093 75.2023 38.7972 75.512 37.986C75.5977 37.7617 75.6715 37.5223 75.7335 37.2677V40.0657H78.1673V28.0296H75.0916V35.1318C75.0916 35.9136 74.8633 36.5331 74.406 36.9904C73.9634 37.4475 73.3882 37.6762 72.68 37.6762C71.9722 37.6762 71.4117 37.4624 70.9985 37.0345C70.5856 36.592 70.3791 36.002 70.3791 35.2646V28.0296H67.3038V34.999C67.3038 36.7985 67.6798 38.1555 68.432 39.0701Z" fill="black"/>
<path d="M80.5936 40.0657V28.0517H83.0274V31.0128C83.0987 30.7044 83.1872 30.4181 83.2929 30.1536C83.6176 29.3277 84.0968 28.7081 84.7311 28.2952C85.3801 27.8822 86.184 27.6756 87.1427 27.6756H87.2753C88.7063 27.6756 89.7905 28.1402 90.528 29.0695C91.2653 29.9839 91.634 31.3558 91.634 33.1848V40.0657H88.5587V32.9193C88.5587 32.1817 88.3448 31.5845 87.9172 31.1272C87.504 30.6699 86.9288 30.4412 86.1912 30.4412C85.439 30.4412 84.8268 30.6772 84.3548 31.1492C83.8975 31.6065 83.6692 32.226 83.6692 33.0078V40.0657H80.5936Z" fill="black"/>
<path fill-rule="evenodd" clip-rule="evenodd" d="M96.4891 39.9551C97.2711 40.3091 98.1782 40.4861 99.2107 40.4861C100.199 40.4861 101.076 40.3164 101.843 39.9772C102.625 39.638 103.267 39.1586 103.768 38.539C104.27 37.9195 104.609 37.1968 104.786 36.3707H101.954C101.821 36.8133 101.519 37.1895 101.047 37.4991C100.575 37.7942 99.9629 37.9417 99.2107 37.9417C98.4584 37.9417 97.8388 37.7794 97.3521 37.4549C96.8654 37.1157 96.5038 36.6584 96.268 36.0831C96.111 35.6912 96.0062 35.2635 95.9536 34.7999H104.985V33.6936C104.985 32.6317 104.764 31.6434 104.322 30.7288C103.879 29.7997 103.215 29.0548 102.33 28.4943C101.46 27.9191 100.376 27.6313 99.0778 27.6313C98.0897 27.6313 97.2195 27.8083 96.4672 28.1624C95.715 28.5016 95.0806 28.9663 94.5642 29.5562C94.0628 30.1316 93.6794 30.7953 93.4138 31.5476C93.1629 32.285 93.0378 33.0521 93.0378 33.8486V34.269C93.0378 35.0359 93.1629 35.7882 93.4138 36.5257C93.6794 37.2631 94.0628 37.9344 94.5642 38.539C95.0806 39.1291 95.7222 39.6011 96.4891 39.9551ZM96.0062 32.9193C96.0653 32.5813 96.1526 32.2715 96.268 31.99C96.4037 31.6708 96.5717 31.3927 96.7722 31.1555C96.942 30.9542 97.1353 30.7825 97.3521 30.6403C97.8241 30.3307 98.3993 30.1758 99.0778 30.1758C99.7562 30.1758 100.317 30.3233 100.759 30.6183C101.217 30.9132 101.556 31.3336 101.777 31.8794C101.833 32.0169 101.882 32.1614 101.923 32.313C101.944 32.3863 101.962 32.4612 101.979 32.5378C102.006 32.6608 102.029 32.7879 102.047 32.9193H96.0062Z" fill="black"/>
</svg>
