<svg width="115" height="64" viewBox="0 0 115 64" fill="none" xmlns="http://www.w3.org/2000/svg">
<path d="M31.8345 38.915C31.9614 40.4307 31.4485 41.9906 30.2938 43.1555C29.139 44.3205 27.5838 44.8472 26.0669 44.7337C25.94 43.2179 26.453 41.658 27.6077 40.4931C28.7624 39.3281 30.3177 38.8014 31.8345 38.915Z" fill="black"/>
<path d="M29.087 36.8086C27.5732 38.4275 25.3863 39.398 22.9987 39.2889C20.6113 39.1799 18.5222 38.0143 17.1622 36.2645C18.676 34.6457 20.8629 33.6752 23.2505 33.7842C25.6379 33.8933 27.727 35.0588 29.087 36.8086Z" fill="black"/>
<path d="M16.2723 31.5987C16.5886 27.808 18.501 24.1743 21.8323 21.7808C25.1635 19.3874 29.2173 18.7342 32.9107 19.6438C32.5944 23.4345 30.682 27.0682 27.3507 29.4617C24.0195 31.8551 19.9657 32.5083 16.2723 31.5987Z" fill="black"/>
<path d="M77.6787 26.9502V29.2585H79.0637V41.3264H81.5258V29.2585H84.7576V26.9502H81.5258V24.5882C81.5258 23.911 81.5874 23.3673 81.7106 22.9569C81.8337 22.5466 81.9978 22.2593 82.203 22.0951C82.4286 21.9105 82.6955 21.8182 83.0032 21.8182C83.2494 21.8182 83.5059 21.8695 83.7727 21.972C84.0599 22.0541 84.3061 22.2695 84.5113 22.6184L85.8655 20.5871C85.7219 20.3819 85.5167 20.1869 85.25 20.0023C85.0038 19.8176 84.7062 19.6637 84.3574 19.5406C84.0086 19.4175 83.6084 19.356 83.1571 19.356C82.2953 19.356 81.5566 19.5406 80.9411 19.9099C80.346 20.2587 79.8844 20.7922 79.5561 21.5104C79.2278 22.2285 79.0637 23.1518 79.0637 24.2803V26.9502H77.6787Z" fill="black"/>
<path d="M39.0131 22.2442L39.0131 41.3264H50.093V38.8641H41.6291V22.2442H39.0131Z" fill="black"/>
<path fill-rule="evenodd" clip-rule="evenodd" d="M56.6546 41.6341C58.173 41.6341 59.4862 41.3366 60.5942 40.7415C61.7227 40.126 62.6563 39.2231 63.395 38.0331L61.3944 36.7712C60.8814 37.633 60.2557 38.2793 59.517 38.7102C58.7783 39.1205 57.9268 39.3257 56.9625 39.3257C55.9981 39.3257 55.1773 39.1205 54.5002 38.7102C53.8232 38.2998 53.3101 37.7048 52.9614 36.9251C52.6963 36.3326 52.5319 35.6452 52.4683 34.863H63.6104V34.586C63.6309 34.4219 63.6412 34.268 63.6412 34.1243C63.6412 32.6265 63.3744 31.3339 62.8409 30.2464C62.3075 29.1589 61.538 28.3279 60.5326 27.7533C59.5477 27.1584 58.3577 26.8608 56.9625 26.8608C55.5672 26.8608 54.3361 27.1686 53.2691 27.7841C52.2227 28.3997 51.4019 29.2615 50.8069 30.3695C50.2324 31.4775 49.9452 32.7701 49.9452 34.2475C49.9452 35.7043 50.2221 36.9866 50.7762 38.0946C51.3506 39.2026 52.1406 40.0747 53.146 40.7108C54.1719 41.3264 55.3415 41.6341 56.6546 41.6341ZM52.9921 31.3544C52.7954 31.7709 52.651 32.2428 52.5587 32.7701H60.9498C60.9025 32.0958 60.7326 31.5009 60.4403 30.985C60.112 30.3695 59.6503 29.8873 59.0553 29.5385C58.4603 29.1897 57.7626 29.0152 56.9625 29.0152C56.0186 29.0152 55.2081 29.2205 54.531 29.6308C53.8744 30.0206 53.3614 30.5952 52.9921 31.3544Z" fill="black"/>
<path fill-rule="evenodd" clip-rule="evenodd" d="M73.6638 33.5641C73.2769 33.3102 72.7845 33.0867 72.1865 32.8932C71.5094 32.647 70.658 32.5239 69.632 32.5239C67.8879 32.5239 66.5235 32.9445 65.5386 33.7858C64.5742 34.6065 64.092 35.7043 64.092 37.079C64.092 38.0433 64.3177 38.8641 64.7691 39.5412C65.2205 40.2183 65.8156 40.7415 66.5543 41.1108C67.3134 41.4597 68.1239 41.6341 68.9857 41.6341C69.7654 41.6341 70.545 41.4905 71.3247 41.2032C72.125 40.9159 72.7919 40.4748 73.3253 39.8798C73.4529 39.7428 73.5657 39.5976 73.6638 39.4443V41.3264H76.1261V31.1697C76.1261 30.2464 75.8901 29.4667 75.4182 28.8306C74.9668 28.1946 74.3204 27.7123 73.4792 27.3841C72.6584 27.0352 71.6941 26.8608 70.5861 26.8608C69.2729 26.8608 68.1444 27.0558 67.2005 27.4456C66.2772 27.8354 65.5489 28.2253 65.0153 28.6151L66.2156 30.431C66.4413 30.2669 66.7492 30.0719 67.139 29.8462C67.5289 29.6205 68.0008 29.4256 68.5548 29.2615C69.1293 29.0973 69.7654 29.0152 70.463 29.0152C70.8939 29.0152 71.3042 29.0563 71.6941 29.1384C72.0839 29.2205 72.4225 29.3538 72.7098 29.5385C73.0175 29.7231 73.2535 29.9796 73.4176 30.3079C73.5817 30.6157 73.6638 31.0158 73.6638 31.5083V33.5641ZM66.9543 35.6325C66.7081 36.0018 66.585 36.443 66.585 36.9559C66.585 37.4894 66.7081 37.951 66.9543 38.3409C67.2211 38.7307 67.5802 39.0282 68.0316 39.2334C68.5034 39.4181 69.037 39.5105 69.632 39.5105C70.3911 39.5105 71.0683 39.3565 71.6633 39.0487C72.2789 38.741 72.7611 38.3101 73.1099 37.7561C73.4792 37.1815 73.6638 36.525 73.6638 35.7863V35.2538C73.2696 35.062 72.8695 34.9112 72.4635 34.8014C71.7044 34.5758 70.8939 34.4629 70.0321 34.4629C69.2319 34.4629 68.5753 34.5655 68.0623 34.7707C67.5699 34.9758 67.2005 35.2631 66.9543 35.6325Z" fill="black"/>
<path fill-rule="evenodd" clip-rule="evenodd" d="M95.4415 40.7415C94.3334 41.3366 93.0202 41.6341 91.5019 41.6341C90.1887 41.6341 89.0191 41.3264 87.9932 40.7108C86.9878 40.0747 86.1979 39.2026 85.6234 38.0946C85.0694 36.9866 84.7924 35.7043 84.7924 34.2475C84.7924 32.7701 85.0797 31.4775 85.6541 30.3695C86.2492 29.2615 87.0699 28.3997 88.1163 27.7841C89.1833 27.1686 90.4145 26.8608 91.8097 26.8608C93.2049 26.8608 94.395 27.1584 95.3799 27.7533C96.3853 28.3279 97.1547 29.1589 97.6882 30.2464C98.2217 31.3339 98.4884 32.6265 98.4884 34.1243C98.4884 34.268 98.4782 34.4219 98.4576 34.586V34.863H87.3155C87.3791 35.6452 87.5435 36.3326 87.8086 36.9251C88.1574 37.7048 88.6704 38.2998 89.3475 38.7102C90.0245 39.1205 90.8453 39.3257 91.8097 39.3257C92.774 39.3257 93.6256 39.1205 94.3643 38.7102C95.1029 38.2793 95.7287 37.633 96.2416 36.7712L98.2422 38.0331C97.5036 39.2231 96.57 40.126 95.4415 40.7415ZM87.4059 32.7701C87.4983 32.2428 87.6428 31.7709 87.8394 31.3544C88.2087 30.5952 88.7217 30.0206 89.3783 29.6308C90.0553 29.2205 90.8658 29.0152 91.8097 29.0152C92.6099 29.0152 93.3075 29.1897 93.9025 29.5385C94.4976 29.8873 94.9592 30.3695 95.2875 30.985C95.5798 31.5009 95.7497 32.0958 95.7971 32.7701H87.4059Z" fill="black"/>
</svg>
