<svg width="124" height="64" viewBox="0 0 124 64" fill="none" xmlns="http://www.w3.org/2000/svg">
<path d="M46.1342 23.9371V20.7769H62.0343V23.9371H55.8969V42.6434H52.3353V23.9371H46.1342Z" fill="black"/>
<path d="M71.7737 39.7704L72.6641 39.6747L72.7277 42.2603C70.3109 42.7498 68.1696 42.9945 66.304 42.9945C63.9508 42.9945 62.2548 42.3455 61.216 41.0473C60.1984 39.7491 59.6896 37.6742 59.6896 34.8225C59.6896 29.1617 61.9898 26.3313 66.5902 26.3313C71.0423 26.3313 73.2683 28.768 73.2683 33.6414L73.0457 36.1313H63.1876C63.2088 37.4508 63.495 38.4191 64.0462 39.0362C64.5974 39.6534 65.6256 39.962 67.1308 39.962C68.636 39.962 70.1837 39.8981 71.7737 39.7704ZM69.8657 33.4499C69.8657 31.8751 69.6113 30.7791 69.1024 30.1619C68.6148 29.5235 67.7774 29.2043 66.5902 29.2043C65.403 29.2043 64.5338 29.5341 63.9826 30.1938C63.4526 30.8536 63.177 31.9389 63.1558 33.4499H69.8657Z" fill="black"/>
<path d="M75.0113 42.6434V26.6824H78.4458V28.5977C80.2478 27.4273 82.0498 26.6718 83.8518 26.3313V29.8108C82.0286 30.1726 80.4704 30.6407 79.1772 31.2153L78.4776 31.5026V42.6434H75.0113Z" fill="black"/>
<path d="M84.9116 42.6434V26.6824H88.3461V28.5977C90.1481 27.4273 91.9501 26.6718 93.7521 26.3313V29.8108C91.9289 30.1726 90.3707 30.6407 89.0775 31.2153L88.3779 31.5026V42.6434H84.9116Z" fill="black"/>
<path d="M106.578 31.5984V38.8766C106.599 39.3448 106.716 39.6959 106.928 39.93C107.161 40.1428 107.511 40.2812 107.977 40.345L107.882 42.9945C106.059 42.9945 104.649 42.6008 103.652 41.8134C101.956 42.6008 100.25 42.9945 98.5326 42.9945C95.3738 42.9945 93.7944 41.3027 93.7944 37.919C93.7944 36.3016 94.2184 35.1311 95.0664 34.4075C95.9356 33.684 97.2606 33.2477 99.0414 33.0987L103.144 32.7476V31.5984C103.144 30.7472 102.953 30.1513 102.571 29.8108C102.211 29.4703 101.67 29.3 100.949 29.3C99.5926 29.3 97.8966 29.3851 95.8614 29.5554L94.8438 29.6192L94.7166 27.1612C97.0274 26.6079 99.1474 26.3313 101.077 26.3313C103.027 26.3313 104.426 26.7569 105.274 27.6082C106.143 28.4381 106.578 29.7682 106.578 31.5984ZM99.4548 35.5567C97.992 35.6844 97.2606 36.4825 97.2606 37.9509C97.2606 39.4193 97.9072 40.1535 99.2004 40.1535C100.26 40.1535 101.384 39.9832 102.571 39.6427L103.144 39.4512V35.2056L99.4548 35.5567Z" fill="black"/>
<path fill-rule="evenodd" clip-rule="evenodd" d="M36.5141 18.9443C39.2813 18.9443 41.59 20.9072 42.124 23.5165C42.2002 23.8893 42.2403 24.2752 42.2403 24.6705V39.3296C42.2403 42.4921 39.6766 45.0558 36.5141 45.0558H21.855C21.2289 45.0558 20.6263 44.9554 20.0624 44.7697C17.7779 44.0173 16.1288 41.866 16.1288 39.3296V24.6705C16.1288 21.508 18.6925 18.9443 21.855 18.9443H36.5141ZM34.1916 20.7767H36.5141C38.4118 20.7767 39.9924 22.1343 40.3378 23.9312C39.2357 24.0561 37.976 23.9404 36.6458 23.3703C35.467 22.8651 34.6851 21.9291 34.1916 20.7767ZM28.7547 20.7767H32.235C32.8132 22.5174 33.921 24.1961 35.924 25.0545C37.5308 25.7431 39.0568 25.9029 40.4079 25.7687V27.641C38.5734 28.2217 36.7453 28.4568 35.2826 28.0286C34.5561 27.816 33.7224 27.2514 32.8253 26.3633C31.9405 25.4873 31.0575 24.3606 30.2238 23.1291C29.7056 22.3637 29.2122 21.5665 28.7547 20.7767ZM26.6502 20.7767H24.2255C24.336 22.8502 23.8474 25.3829 22.03 27.9487C20.8259 29.6486 19.4021 30.5835 17.9612 31.0011V34.654C18.8294 34.1267 19.8515 33.4066 21.0483 32.4343C23.8758 30.1369 26.1029 29.2228 27.7916 29.0556C29.4706 28.8894 30.6641 29.4718 31.1899 30.2079C31.7418 30.9806 32.0538 32.0161 32.1713 33.1083C32.2901 34.2137 32.2177 35.4465 31.9389 36.6701C31.3847 39.1026 29.9777 41.6346 27.443 42.9995C27.305 43.0738 27.1657 43.1485 27.0253 43.2235H29.8735C30.9874 41.8094 31.8788 40.4044 32.1984 39.3032C32.5593 38.0603 32.7074 36.7426 32.8459 35.5106L32.846 35.5104L32.846 35.5101C32.8957 35.0677 32.9443 34.6362 33.0009 34.2232C33.0991 33.5076 33.2347 32.7495 33.5259 32.2028C33.68 31.9135 33.9248 31.5914 34.3189 31.4055C34.7337 31.2097 35.1654 31.2337 35.544 31.36C36.6053 31.7137 38.0163 31.787 40.4079 31.188V29.5535C38.5637 30.0732 36.5527 30.3096 34.7679 29.7872C33.6162 29.4502 32.5229 28.6424 31.5361 27.6655C30.5371 26.6764 29.579 25.4453 28.7064 24.1563C27.96 23.0538 27.2651 21.8926 26.6502 20.7767ZM40.4079 33.0725C38.1295 33.594 36.4911 33.5723 35.1055 33.1436C35.003 33.3833 34.9074 33.8085 34.8163 34.4724C34.771 34.8022 34.729 35.1771 34.6836 35.5825L34.6835 35.5828C34.5419 36.8463 34.3671 38.4055 33.9582 39.8141C33.6447 40.8939 32.9668 42.08 32.1609 43.2235H34.0044C34.3444 42.3779 34.6576 41.5726 34.9036 40.8956C35.1678 40.1682 35.3334 39.6451 35.3867 39.3789C35.4878 38.8733 35.6804 38.3295 36.1322 37.9438C36.6022 37.5426 37.1794 37.4565 37.7202 37.484C38.2527 37.5111 38.8771 37.6545 39.5815 37.8566C39.8376 37.93 40.1129 38.0139 40.4079 38.1069V33.0725ZM40.3483 40.012C39.87 39.8567 39.4492 39.7249 39.0763 39.6179C38.3957 39.4227 37.9392 39.3299 37.6271 39.3141C37.4256 39.3038 37.344 39.3286 37.3206 39.3391C37.3075 39.3546 37.2425 39.4433 37.1835 39.7383C37.0993 40.1592 36.886 40.8052 36.6258 41.5213C36.439 42.0354 36.2171 42.6149 35.977 43.2235H36.5141C38.4318 43.2235 40.0257 41.8371 40.3483 40.012ZM23.0716 43.2235C24.2716 42.6046 25.4828 41.9738 26.5743 41.3861C28.506 40.346 29.6758 38.3543 30.1523 36.263C30.3889 35.2248 30.4453 34.1958 30.3494 33.3042C30.2521 32.3994 30.0058 31.7027 29.6988 31.2729C29.652 31.2074 29.1849 30.759 27.9722 30.8791C26.7691 30.9982 24.8733 31.6874 22.2037 33.8565C20.5326 35.2142 19.1342 36.1446 17.9612 36.7595V38.8261C18.2503 38.5614 18.5768 38.3404 18.8786 38.1518C19.186 37.9597 19.521 37.7707 19.8501 37.5861L19.9317 37.5404C20.2392 37.368 20.5444 37.197 20.8475 37.0155C21.5105 36.6184 22.1066 36.2036 22.565 35.721C23.3587 34.8855 24.5042 33.8883 25.5812 33.2075C26.1125 32.8717 26.6863 32.5746 27.2277 32.4383C27.7357 32.3103 28.5235 32.2582 29.0725 32.8857C29.5949 33.4829 29.8114 34.3786 29.4308 35.541C29.0694 36.6451 28.1617 38.0393 26.4072 39.8523C24.586 41.7342 22.7647 42.677 21.2292 42.9774C21.056 43.0112 20.8856 43.0371 20.7187 43.0551C21.0782 43.1646 21.4597 43.2235 21.855 43.2235H23.0716ZM17.9612 29.0623C18.849 28.6941 19.7334 28.0209 20.5347 26.8895C22.1171 24.6557 22.4994 22.4896 22.3905 20.7767H21.855C19.7045 20.7767 17.9612 22.52 17.9612 24.6705V29.0623ZM37.3189 39.3399C37.3146 39.342 37.3128 39.3433 37.313 39.3435C37.3131 39.3436 37.3141 39.3431 37.3158 39.3421L37.3169 39.3413L37.3189 39.3399ZM26.5602 34.7564C25.6375 35.3397 24.6069 36.232 23.8936 36.983C23.2641 37.6457 22.5003 38.1614 21.789 38.5875C21.4622 38.7832 21.1344 38.9669 20.8306 39.1372L20.7464 39.1844C20.4135 39.3711 20.1149 39.54 19.8497 39.7057C19.2778 40.0632 19.0387 40.3034 18.9637 40.4573C18.9423 40.5014 18.9397 40.5267 18.9463 40.5652C18.9558 40.62 18.9952 40.7467 19.1521 40.9559L19.1674 40.9762L19.1815 40.9974C19.1824 40.9986 19.203 41.027 19.2686 41.0671C19.3363 41.1086 19.4411 41.1555 19.59 41.1921C19.8893 41.2657 20.3249 41.2872 20.8774 41.1791C21.976 40.9641 23.476 40.2463 25.0905 38.578C26.7717 36.8407 27.4555 35.6856 27.6894 34.971C27.8287 34.5455 27.8001 34.3151 27.7556 34.1974C27.7333 34.2015 27.7067 34.2072 27.6753 34.2151C27.4107 34.2818 27.0288 34.4603 26.5602 34.7564ZM27.8542 34.1888C27.8538 34.1892 27.8483 34.1893 27.839 34.1875C27.8499 34.1874 27.8546 34.1883 27.8542 34.1888Z" fill="black"/>
</svg>
